<svg width="60" height="60" viewBox="0 0 60 60" fill="none" xmlns="http://www.w3.org/2000/svg">
<path d="M38.8496 24.2396H35.1504V23.0065C35.1504 21.6984 34.6307 20.4438 33.7058 19.5189C32.7808 18.5939 31.5262 18.0742 30.2181 18.0742C28.91 18.0742 27.6554 18.5939 26.7304 19.5189C25.8055 20.4438 25.2858 21.6984 25.2858 23.0065V24.2396H21.5866C21.2596 24.2396 20.9459 24.3695 20.7147 24.6007C20.4834 24.832 20.3535 25.1456 20.3535 25.4727V39.0365C20.3535 40.0176 20.7433 40.9585 21.437 41.6522C22.1307 42.3459 23.0716 42.7357 24.0527 42.7357H36.3835C37.3646 42.7357 38.3055 42.3459 38.9992 41.6522C39.6929 40.9585 40.0827 40.0176 40.0827 39.0365V25.4727C40.0827 25.1456 39.9528 24.832 39.7215 24.6007C39.4903 24.3695 39.1766 24.2396 38.8496 24.2396ZM27.752 23.0065C27.752 22.3524 28.0118 21.7252 28.4743 21.2627C28.9368 20.8002 29.564 20.5404 30.2181 20.5404C30.8722 20.5404 31.4994 20.8002 31.9619 21.2627C32.4244 21.7252 32.6842 22.3524 32.6842 23.0065V24.2396H27.752V23.0065ZM37.6165 39.0365C37.6165 39.3635 37.4866 39.6771 37.2554 39.9084C37.0241 40.1396 36.7105 40.2695 36.3835 40.2695H24.0527C23.7257 40.2695 23.4121 40.1396 23.1808 39.9084C22.9496 39.6771 22.8197 39.3635 22.8197 39.0365V26.7057H25.2858V27.9388C25.2858 28.2658 25.4157 28.5795 25.647 28.8107C25.8782 29.042 26.1918 29.1719 26.5189 29.1719C26.8459 29.1719 27.1595 29.042 27.3908 28.8107C27.622 28.5795 27.752 28.2658 27.752 27.9388V26.7057H32.6842V27.9388C32.6842 28.2658 32.8142 28.5795 33.0454 28.8107C33.2766 29.042 33.5903 29.1719 33.9173 29.1719C34.2443 29.1719 34.558 29.042 34.7892 28.8107C35.0205 28.5795 35.1504 28.2658 35.1504 27.9388V26.7057H37.6165V39.0365Z" fill="#1A1A1A"/>
</svg>
