<svg width="30" height="31" viewBox="0 0 30 31" fill="none" xmlns="http://www.w3.org/2000/svg">
<path d="M15.2025 8.00911C16.5589 8.00911 17.6686 9.11888 17.6686 10.4753C17.6686 11.8316 16.5589 12.9414 15.2025 12.9414C13.8461 12.9414 12.7363 11.8316 12.7363 10.4753C12.7363 9.11888 13.8461 8.00911 15.2025 8.00911ZM15.2025 20.3398C18.5318 20.3398 22.3543 21.9305 22.6009 22.806H7.80404C8.08764 21.9182 11.8855 20.3398 15.2025 20.3398ZM15.2025 5.54297C12.4774 5.54297 10.2702 7.75017 10.2702 10.4753C10.2702 13.2004 12.4774 15.4076 15.2025 15.4076C17.9276 15.4076 20.1348 13.2004 20.1348 10.4753C20.1348 7.75017 17.9276 5.54297 15.2025 5.54297ZM15.2025 17.8737C11.9102 17.8737 5.33789 19.526 5.33789 22.806V25.2721H25.0671V22.806C25.0671 19.526 18.4948 17.8737 15.2025 17.8737Z" fill="#1A1A1A"/>
</svg>
