<svg width="34" height="35" viewBox="0 0 34 35" fill="none" xmlns="http://www.w3.org/2000/svg">
<g clip-path="url(#clip0_3380_57909)">
<path fill-rule="evenodd" clip-rule="evenodd" d="M14.5754 3.53516C12.6952 3.53532 10.8423 3.98512 9.17121 4.84703C7.50017 5.70894 6.05948 6.95797 4.96933 8.48992C3.87919 10.0219 3.1712 11.7923 2.90444 13.6535C2.63767 15.5147 2.81987 17.4127 3.43583 19.1892C4.05179 20.9657 5.08365 22.5691 6.44532 23.8657C7.80699 25.1623 9.45898 26.1144 11.2635 26.6427C13.068 27.171 14.9726 27.2601 16.8186 26.9025C18.6645 26.545 20.3981 25.7512 21.8749 24.5874L26.941 29.6535C27.2026 29.9062 27.553 30.046 27.9167 30.0428C28.2805 30.0397 28.6284 29.8938 28.8856 29.6366C29.1428 29.3794 29.2887 29.0315 29.2918 28.6677C29.295 28.304 29.1552 27.9536 28.9025 27.692L23.8364 22.6259C25.207 20.8872 26.0603 18.7978 26.2988 16.5967C26.5374 14.3957 26.1514 12.1719 25.1851 10.18C24.2188 8.18808 22.7112 6.50843 20.8349 5.3333C18.9586 4.15816 16.7893 3.53501 14.5754 3.53516ZM5.55857 15.3264C5.55857 12.935 6.50855 10.6415 8.19954 8.95054C9.89053 7.25956 12.184 6.30957 14.5754 6.30957C16.9668 6.30957 19.2603 7.25956 20.9513 8.95054C22.6423 10.6415 23.5923 12.935 23.5923 15.3264C23.5923 17.7178 22.6423 20.0113 20.9513 21.7023C19.2603 23.3933 16.9668 24.3433 14.5754 24.3433C12.184 24.3433 9.89053 23.3933 8.19954 21.7023C6.50855 20.0113 5.55857 17.7178 5.55857 15.3264Z" fill="black"/>
</g>
<defs>
<clipPath id="clip0_3380_57909">
<rect width="33.293" height="33.293" fill="white" transform="translate(0.00976562 0.757812)"/>
</clipPath>
</defs>
</svg>
